<svg id="visual" viewBox="0 0 900 600" width="900" height="600" xmlns="http://www.w3.org/2000/svg" xmlns:xlink="http://www.w3.org/1999/xlink" version="1.1"><rect x="0" y="0" width="900" height="600" fill="#FFFFFF"></rect><path d="M0 241L16.7 251.8C33.3 262.7 66.7 284.3 100 290.3C133.3 296.3 166.7 286.7 200 266.2C233.3 245.7 266.7 214.3 300 208.7C333.3 203 366.7 223 400 237.3C433.3 251.7 466.7 260.3 500 251.7C533.3 243 566.7 217 600 206.5C633.3 196 666.7 201 700 213.7C733.3 226.3 766.7 246.7 800 255.2C833.3 263.7 866.7 260.3 883.3 258.7L900 257L900 0L883.3 0C866.7 0 833.3 0 800 0C766.7 0 733.3 0 700 0C666.7 0 633.3 0 600 0C566.7 0 533.3 0 500 0C466.7 0 433.3 0 400 0C366.7 0 333.3 0 300 0C266.7 0 233.3 0 200 0C166.7 0 133.3 0 100 0C66.7 0 33.3 0 16.7 0L0 0Z" fill="#9fc4e3" stroke-linecap="round" stroke-linejoin="miter"></path></svg>